/* XPM */
static char * camera_xpm[] = {
"14 24 2 1",
" 	c None",
".	c #C5C8C6",
"              ",
"              ",
"              ",
"              ",
"              ",
"              ",
"              ",
"              ",
"              ",
"  ..........  ",
"  .  .     .  ",
"  ..........  ",
"  . ..  ....  ",
"  ... .. ...  ",
"  ... .. ...  ",
"  ....  ....  ",
"  ..........  ",
"              ",
"              ",
"              ",
"              ",
"              ",
"              ",
"              "};
