/* XPM */
static char * close_xpm[] = {
"14 24 2 1",
" 	c None",
".	c #F06F48",
"              ",
"              ",
"              ",
"              ",
"              ",
"              ",
"              ",
"              ",
"              ",
"     ....     ",
"    ......    ",
"   ........   ",
"   ..    ..   ",
"   ..    ..   ",
"   ........   ",
"    ......    ",
"     ....     ",
"              ",
"              ",
"              ",
"              ",
"              ",
"              ",
"              "};
