/* XPM */
static char * cpu_xpm[] = {
"9 24 2 1",
" 	c None",
".	c #C5C8C6",
"         ",
"         ",
"         ",
"         ",
"         ",
"         ",
"         ",
"         ",
"         ",
"  . . .  ",
" ....... ",
"  .   .  ",
" ..  ... ",
"  . ...  ",
" ....... ",
"  . . .  ",
"         ",
"         ",
"         ",
"         ",
"         ",
"         ",
"         ",
"         "};
