/* XPM */
static char *logo[] = {
/* columns rows colors chars-per-pixel */
"28 24 18 1 ",
"  c None",
". c gray76",
"X c gray82",
"o c #E2E2E2",
"O c #E4E4E4",
"+ c #E7E7E7",
"@ c gray93",
"# c gray94",
"$ c #F1F1F1",
"% c gray95",
"& c #F3F3F3",
"* c #F4F4F4",
"= c #F6F6F6",
"- c gray98",
"; c #FBFBFB",
": c gray99",
"> c #FEFEFE",
", c white",
/* pixels */
"                            ",
"                            ",
"                            ",
"                            ",
"                            ",
"    +@=- ,,,,               ",
"     o@=, ,,,               ",
"      +&- ,,,,              ",
"      o&-, ,,,,             ",
"       &-,, ,,, ,,,,,,,,    ",
"        -,, ,,,, ,,,,,,,    ",
"        -,,, ,,,,           ",
"        -,,, ,,,,           ",
"        -,, ,,,,,, ,,,,,    ",
"       @-,, ,,,,,,, ,,,,    ",
"      o@-, ,,,, ,,,         ",
"      o&- ,,,,  ,,,,        ",
"     Xo@- ,,,    ,,,,       ",
"    .Xo& ,,,,     ,,,       ",
"                            ",
"                            ",
"                            ",
"                            ",
"                            "
};
