/* XPM */
static char * ram_xpm[] = {
"12 24 2 1",
" 	c None",
".	c #C5C8C6",
"            ",
"            ",
"            ",
"            ",
"            ",
"            ",
"            ",
"            ",
"            ",
" .........  ",
" .......... ",
"  ......... ",
" .......... ",
" .......... ",
"            ",
" . .  . . . ",
"            ",
"            ",
"            ",
"            ",
"            ",
"            ",
"            ",
"            "};
