/* XPM */
static char * temperature_xpm[] = {
"7 24 2 1",
" 	c None",
".	c #C5C8C6",
"       ",
"       ",
"       ",
"       ",
"       ",
"       ",
"       ",
"       ",
"       ",
"  ..   ",
"  .... ",
"  ..   ",
"  .... ",
"  ..   ",
" ....  ",
"  ..   ",
"       ",
"       ",
"       ",
"       ",
"       ",
"       ",
"       ",
"       "};
