/* XPM */
static char * wifi_xpm[] = {
"11 24 2 1",
" 	c None",
".	c #C5C8C6",
"           ",
"           ",
"           ",
"           ",
"           ",
"           ",
"           ",
"           ",
"           ",
"  .......  ",
" .       . ",
"   .....   ",
"  .     .  ",
"    ...    ",
"           ",
"     .     ",
"           ",
"           ",
"           ",
"           ",
"           ",
"           ",
"           ",
"           "};
